<svg width="24" height="36" viewBox="0 0 24 36" fill="none" xmlns="http://www.w3.org/2000/svg">
<path d="M22.9219 15.6938L4.92119 0.693154C4.30926 0.186978 3.52168 -0.0560776 2.73091 0.0172136C1.94015 0.0905047 1.21065 0.474169 0.702173 1.08419C0.193693 1.69421 -0.0523311 2.48087 0.0179768 3.2719C0.0882846 4.06294 0.469194 4.79388 1.07729 5.30465L16.3123 17.9997L1.07729 30.6947C0.466851 31.2047 0.0838361 31.9362 0.0123854 32.7285C-0.0590654 33.5208 0.186891 34.309 0.696226 34.9201C1.20556 35.5311 1.93662 35.915 2.72881 35.9874C3.521 36.0598 4.30953 35.8148 4.92119 35.3062L22.9219 20.3053C23.2595 20.0233 23.531 19.6707 23.7173 19.2722C23.9036 18.8738 24.0001 18.4394 24.0001 17.9996C24.0001 17.5597 23.9036 17.1253 23.7173 16.7269C23.531 16.3284 23.2595 15.9758 22.9219 15.6938Z" fill="white"/>
</svg>
