<svg width="42" height="42" viewBox="0 0 42 42" fill="none" xmlns="http://www.w3.org/2000/svg">
    <path d="M14 40.25C15.933 40.25 17.5 38.683 17.5 36.75C17.5 34.817 15.933 33.25 14 33.25C12.067 33.25 10.5 34.817 10.5 36.75C10.5 38.683 12.067 40.25 14 40.25Z"
          stroke="black" stroke-opacity="0.3" stroke-width="2" stroke-linecap="round" stroke-linejoin="round"/>
    <path d="M35 40.25C36.933 40.25 38.5 38.683 38.5 36.75C38.5 34.817 36.933 33.25 35 33.25C33.067 33.25 31.5 34.817 31.5 36.75C31.5 38.683 33.067 40.25 35 40.25Z"
          stroke="black" stroke-opacity="0.3" stroke-width="2" stroke-linecap="round" stroke-linejoin="round"/>
    <path d="M9.9225 10.5H40.25L37.31 25.1825C37.15 25.9882 36.7117 26.7119 36.0718 27.227C35.4319 27.7421 34.6313 28.0157 33.81 28H15.3125C14.4579 28.0072 13.6303 27.7016 12.9855 27.1407C12.3408 26.5798 11.9236 25.8023 11.8125 24.955L9.1525 4.795C9.04219 3.95366 8.62999 3.18105 7.9926 2.62092C7.35521 2.06079 6.53604 1.75128 5.6875 1.75H1.75"
          stroke="black" stroke-opacity="0.3" stroke-width="2" stroke-linecap="round" stroke-linejoin="round"/>
</svg>
