<svg width="17" height="17" viewBox="0 0 17 17" fill="none" xmlns="http://www.w3.org/2000/svg">
<path d="M1.37502 16.2187C1.29688 16.2192 1.21942 16.2042 1.14708 16.1747C1.07474 16.1451 1.00894 16.1016 0.953462 16.0465C0.897811 15.9914 0.853639 15.9257 0.823496 15.8533C0.793352 15.781 0.777832 15.7034 0.777832 15.625C0.777832 15.5466 0.793352 15.469 0.823496 15.3966C0.853639 15.3243 0.897811 15.2586 0.953462 15.2034L15.2035 0.953426C15.3153 0.84162 15.4669 0.778809 15.625 0.778809C15.7831 0.778809 15.9348 0.84162 16.0466 0.953426C16.1584 1.06523 16.2212 1.21687 16.2212 1.37499C16.2212 1.5331 16.1584 1.68475 16.0466 1.79655L1.79659 16.0465C1.74111 16.1016 1.67531 16.1451 1.60297 16.1747C1.53063 16.2042 1.45317 16.2192 1.37502 16.2187Z" fill="white"/>
<path d="M15.6255 16.2187C15.5473 16.2192 15.4699 16.2042 15.3975 16.1747C15.3252 16.1451 15.2594 16.1016 15.2039 16.0465L0.953914 1.79655C0.842108 1.68475 0.779297 1.5331 0.779297 1.37499C0.779297 1.21687 0.842108 1.06523 0.953914 0.953425C1.06572 0.84162 1.21736 0.778809 1.37548 0.778809C1.53359 0.778809 1.68523 0.84162 1.79704 0.953425L16.047 15.2034C16.1027 15.2586 16.1469 15.3243 16.177 15.3966C16.2071 15.469 16.2227 15.5466 16.2227 15.625C16.2227 15.7034 16.2071 15.781 16.177 15.8533C16.1469 15.9257 16.1027 15.9914 16.047 16.0465C15.9916 16.1016 15.9258 16.1451 15.8534 16.1747C15.7811 16.2042 15.7036 16.2192 15.6255 16.2187Z" fill="white"/>
</svg>
