<svg width="39" height="45" viewBox="0 0 39 45" fill="none" xmlns="http://www.w3.org/2000/svg">
    <g clip-path="url(#clip0_14_396)">
        <path d="M8.20713 29.2297C7.60791 30.4281 7.10088 31.8109 6.2251 32.7328C11.0649 37.5266 21.4821 36.8352 26.9673 33.793C27.8892 33.2859 28.9954 32.2719 29.9634 31.6727C27.4282 26.9711 25.7688 22.1313 24.2478 16.9688C23.372 14.0649 22.4501 11.207 21.4821 8.34923C21.0212 7.01251 20.6524 5.6297 20.0993 4.33907C20.0532 4.20079 19.5001 2.35704 19.454 2.40313C19.3157 3.00235 19.0392 4.06251 18.9931 4.24688C17.5642 10.193 14.9829 15.7242 12.4017 21.2555C11.0649 24.0672 9.58994 26.5102 8.20713 29.2297Z"
              fill="#F9C467"/>
        <path d="M25.2156 8.34923C24.8008 7.42736 23.2336 4.52345 21.8047 3.32501C23.1414 6.3672 23.5102 9.63986 24.5703 12.7742C26.6445 18.9047 28.0734 25.1274 31.3922 30.7969C31.5305 30.7508 32.4523 30.7047 32.5906 30.6586C30.4703 25.7727 29.5945 20.7945 27.9813 15.7242C27.1977 13.2813 26.2297 10.6539 25.2156 8.34923Z"
              fill="#F4A321"/>
        <path d="M37.0155 34.1617L20.8826 43.7953C19.1311 43.3804 10.9725 41.8593 9.31311 41.0757C7.69983 40.2922 5.62561 39.739 4.15061 38.5867C3.22874 37.8492 2.26077 36.6968 2.44514 34.9914C2.58342 33.4242 4.56546 32.825 5.67171 33.0554C9.22092 37.3882 14.2912 37.3422 19.0389 36.9734C21.8967 36.7429 24.6162 36.2359 27.1975 34.8531C29.3639 33.7007 33.7428 30.1976 35.9553 32.5023C36.6006 33.1015 36.9233 33.6547 37.0155 34.1617Z"
              fill="#996200"/>
        <path d="M35.4021 37.25C33.9271 38.8633 32.4982 40.2461 30.6544 41.1679C27.2896 42.8273 23.6021 43.6109 20.0068 43.6109C18.1169 43.6109 4.93411 39.1859 6.77786 39.5547C14.706 41.3523 27.7505 41.675 35.5404 33.1937C36.2779 32.4101 36.4622 36.0976 35.4021 37.25Z"
              fill="#774F00"/>
        <path d="M19.4078 16.8765C20.3752 16.8765 21.1594 16.0923 21.1594 15.125C21.1594 14.1576 20.3752 13.3734 19.4078 13.3734C18.4405 13.3734 17.6562 14.1576 17.6562 15.125C17.6562 16.0923 18.4405 16.8765 19.4078 16.8765Z"
              fill="#B75615"/>
        <path d="M12.9547 31.1656C13.922 31.1656 14.7062 30.3814 14.7062 29.414C14.7062 28.4467 13.922 27.6625 12.9547 27.6625C11.9873 27.6625 11.2031 28.4467 11.2031 29.414C11.2031 30.3814 11.9873 31.1656 12.9547 31.1656Z"
              fill="#B75615"/>
        <path d="M21.8048 25.6343C22.7721 25.6343 23.5564 24.8501 23.5564 23.8828C23.5564 22.9154 22.7721 22.1312 21.8048 22.1312C20.8374 22.1312 20.0532 22.9154 20.0532 23.8828C20.0532 24.8501 20.8374 25.6343 21.8048 25.6343Z"
              fill="#B75615"/>
        <path d="M17.0693 22.1165L15.5557 21.1467L13.5911 24.2127L15.1048 25.1826L17.0693 22.1165Z" fill="#176B00"/>
        <path d="M19.9279 29.8787L21.1372 28.5486L18.4429 26.0991L17.2336 27.4292L19.9279 29.8787Z" fill="#176B00"/>
        <path d="M20.2656 11.5814L21.0718 10.6947L19.2642 9.05131L18.458 9.93804L20.2656 11.5814Z" fill="#176B00"/>
        <path d="M16.8268 34.0234C17.5396 34.0234 18.1174 33.4456 18.1174 32.7328C18.1174 32.02 17.5396 31.4422 16.8268 31.4422C16.114 31.4422 15.5361 32.02 15.5361 32.7328C15.5361 33.4456 16.114 34.0234 16.8268 34.0234Z"
              fill="#DDDD00"/>
        <path d="M25.0313 29.9211C25.7441 29.9211 26.322 29.3433 26.322 28.6305C26.322 27.9177 25.7441 27.3398 25.0313 27.3398C24.3186 27.3398 23.7407 27.9177 23.7407 28.6305C23.7407 29.3433 24.3186 29.9211 25.0313 29.9211Z"
              fill="#DDDD00"/>
        <path d="M19.2232 21.2554C19.936 21.2554 20.5139 20.6776 20.5139 19.9648C20.5139 19.252 19.936 18.6742 19.2232 18.6742C18.5105 18.6742 17.9326 19.252 17.9326 19.9648C17.9326 20.6776 18.5105 21.2554 19.2232 21.2554Z"
              fill="#DDDD00"/>
        <path d="M34.6186 30.0133C31.9913 23.7445 30.4702 17.1531 28.0733 10.7922C26.7827 7.42733 24.017 -1.60704 19.0389 0.697647C18.9928 0.697647 18.9467 0.697647 18.8545 0.697647C16.7803 0.60546 16.7342 3.46327 16.4116 4.89218C15.628 8.02655 14.6139 11.0687 13.4155 14.0648C12.1709 17.1992 10.742 20.2414 9.26704 23.2375C8.06861 25.6805 6.73189 30.2437 4.15064 31.4883C4.10454 31.5344 4.05845 31.5344 3.96626 31.5805C2.53735 31.857 1.33892 32.825 0.739698 34.3922C-0.366552 37.4344 2.07642 39.1398 4.4272 40.5226C10.2811 44.0719 17.3795 45.4086 24.1553 44.3945C27.4741 43.8875 31.1616 42.9195 33.8811 40.8453C35.5866 39.5086 38.3983 37.5727 38.4444 35.1297C38.4905 33.0555 36.6928 30.6125 34.6186 30.0133ZM24.8006 9.31718C25.7225 11.5297 26.5061 13.7422 27.1975 16.0469C28.6264 20.7945 30.1014 25.4961 31.9452 30.1055C31.8069 30.1516 31.6686 30.1977 31.5303 30.2437C28.6264 24.943 27.2897 19.043 25.446 13.2812C24.5241 10.3773 23.6483 7.33515 22.496 4.47733C23.5561 6.04452 24.4319 8.4414 24.8006 9.31718ZM13.0006 21.3937C15.4436 16.1391 17.61 10.7461 18.9928 5.12265C19.0389 4.93827 19.2694 3.9703 19.4077 3.37108C19.4538 3.37108 19.4538 3.37108 19.4999 3.37108C19.6381 4.0164 19.9608 5.12265 20.0069 5.26093C20.56 6.50546 20.8827 7.79608 21.3436 9.04062C22.2655 11.7601 23.1413 14.4797 23.9709 17.1992C25.4459 22.0851 26.8288 26.9711 29.2717 31.4883C28.3499 32.0875 27.428 32.7328 26.5983 33.1937C21.3897 36.0516 11.8483 36.9273 7.23892 32.3641C8.02251 31.4422 8.62173 30.3359 9.17486 29.2297C10.4655 26.6023 11.7561 24.0211 13.0006 21.3937ZM34.1577 37.2961C32.7749 38.5406 31.392 39.6008 29.6866 40.3383C26.5061 41.6289 23.0491 42.2281 19.6381 42.2281C16.1811 42.182 12.7702 41.5367 9.5897 40.2461C8.06861 39.6469 6.54751 38.8633 5.1647 37.9414C4.28892 37.3883 2.9522 36.8351 3.09048 35.4984C3.22876 34.3 4.38111 33.8391 5.39517 34.0695C8.71392 37.4344 14.2452 38.1258 18.7624 37.8492C21.4358 37.6648 24.1092 37.1117 26.5522 36.0055C28.5803 35.0836 32.6366 31.1195 34.7108 32.9172C36.5545 34.4844 35.6788 36.0055 34.1577 37.2961Z"
              fill="#231F20"/>
    </g>
    <defs>
        <clipPath id="clip0_14_396">
            <rect width="39" height="45" fill="white"/>
        </clipPath>
    </defs>
</svg>
