<svg width="200" height="46" viewBox="0 0 200 46" fill="none" xmlns="http://www.w3.org/2000/svg">
<path d="M8.20713 29.2297C7.60791 30.4281 7.10088 31.8109 6.2251 32.7328C11.0649 37.5266 21.4821 36.8352 26.9673 33.793C27.8892 33.2859 28.9954 32.2719 29.9634 31.6727C27.4282 26.9711 25.7688 22.1313 24.2478 16.9688C23.372 14.0649 22.4501 11.207 21.4821 8.34923C21.0212 7.01251 20.6524 5.6297 20.0993 4.33907C20.0532 4.20079 19.5001 2.35704 19.454 2.40313C19.3157 3.00235 19.0392 4.06251 18.9931 4.24688C17.5642 10.193 14.9829 15.7242 12.4017 21.2555C11.0649 24.0672 9.58994 26.5102 8.20713 29.2297Z" fill="#F9C467"/>
<path d="M25.2156 8.34923C24.8008 7.42736 23.2336 4.52345 21.8047 3.32501C23.1414 6.3672 23.5102 9.63986 24.5703 12.7742C26.6445 18.9047 28.0734 25.1274 31.3922 30.7969C31.5305 30.7508 32.4523 30.7047 32.5906 30.6586C30.4703 25.7727 29.5945 20.7945 27.9813 15.7242C27.1977 13.2813 26.2297 10.6539 25.2156 8.34923Z" fill="#F4A321"/>
<path d="M37.0155 34.1617L20.8826 43.7953C19.1311 43.3804 10.9725 41.8593 9.31311 41.0757C7.69983 40.2922 5.62561 39.739 4.15061 38.5867C3.22874 37.8492 2.26077 36.6968 2.44514 34.9914C2.58342 33.4242 4.56546 32.825 5.67171 33.0554C9.22092 37.3882 14.2912 37.3422 19.0389 36.9734C21.8967 36.7429 24.6162 36.2359 27.1975 34.8531C29.3639 33.7007 33.7428 30.1976 35.9553 32.5023C36.6006 33.1015 36.9233 33.6547 37.0155 34.1617Z" fill="#996200"/>
<path d="M35.4021 37.25C33.9271 38.8633 32.4982 40.2461 30.6544 41.1679C27.2896 42.8273 23.6021 43.6109 20.0068 43.6109C18.1169 43.6109 4.93411 39.1859 6.77786 39.5547C14.706 41.3523 27.7505 41.675 35.5404 33.1937C36.2779 32.4101 36.4622 36.0976 35.4021 37.25Z" fill="#774F00"/>
<path d="M19.4078 16.8765C20.3752 16.8765 21.1594 16.0923 21.1594 15.125C21.1594 14.1576 20.3752 13.3734 19.4078 13.3734C18.4405 13.3734 17.6562 14.1576 17.6562 15.125C17.6562 16.0923 18.4405 16.8765 19.4078 16.8765Z" fill="#B75615"/>
<path d="M12.9547 31.1656C13.922 31.1656 14.7062 30.3814 14.7062 29.414C14.7062 28.4467 13.922 27.6625 12.9547 27.6625C11.9873 27.6625 11.2031 28.4467 11.2031 29.414C11.2031 30.3814 11.9873 31.1656 12.9547 31.1656Z" fill="#B75615"/>
<path d="M21.8048 25.6343C22.7721 25.6343 23.5564 24.8501 23.5564 23.8828C23.5564 22.9154 22.7721 22.1312 21.8048 22.1312C20.8374 22.1312 20.0532 22.9154 20.0532 23.8828C20.0532 24.8501 20.8374 25.6343 21.8048 25.6343Z" fill="#B75615"/>
<path d="M17.0693 22.1165L15.5557 21.1467L13.5911 24.2127L15.1048 25.1826L17.0693 22.1165Z" fill="#176B00"/>
<path d="M19.9279 29.8787L21.1372 28.5486L18.4429 26.0991L17.2336 27.4292L19.9279 29.8787Z" fill="#176B00"/>
<path d="M20.2656 11.5814L21.0718 10.6947L19.2642 9.05131L18.458 9.93804L20.2656 11.5814Z" fill="#176B00"/>
<path d="M16.8268 34.0234C17.5396 34.0234 18.1174 33.4456 18.1174 32.7328C18.1174 32.02 17.5396 31.4422 16.8268 31.4422C16.114 31.4422 15.5361 32.02 15.5361 32.7328C15.5361 33.4456 16.114 34.0234 16.8268 34.0234Z" fill="#DDDD00"/>
<path d="M25.0313 29.9211C25.7441 29.9211 26.322 29.3433 26.322 28.6305C26.322 27.9177 25.7441 27.3398 25.0313 27.3398C24.3186 27.3398 23.7407 27.9177 23.7407 28.6305C23.7407 29.3433 24.3186 29.9211 25.0313 29.9211Z" fill="#DDDD00"/>
<path d="M19.2232 21.2554C19.936 21.2554 20.5139 20.6776 20.5139 19.9648C20.5139 19.252 19.936 18.6742 19.2232 18.6742C18.5105 18.6742 17.9326 19.252 17.9326 19.9648C17.9326 20.6776 18.5105 21.2554 19.2232 21.2554Z" fill="#DDDD00"/>
<path d="M34.6186 30.0133C31.9913 23.7445 30.4702 17.1531 28.0733 10.7922C26.7827 7.42733 24.017 -1.60704 19.0389 0.697647C18.9928 0.697647 18.9467 0.697647 18.8545 0.697647C16.7803 0.60546 16.7342 3.46327 16.4116 4.89218C15.628 8.02655 14.6139 11.0687 13.4155 14.0648C12.1709 17.1992 10.742 20.2414 9.26704 23.2375C8.06861 25.6805 6.73189 30.2437 4.15064 31.4883C4.10454 31.5344 4.05845 31.5344 3.96626 31.5805C2.53735 31.857 1.33892 32.825 0.739698 34.3922C-0.366552 37.4344 2.07642 39.1398 4.4272 40.5226C10.2811 44.0719 17.3795 45.4086 24.1553 44.3945C27.4741 43.8875 31.1616 42.9195 33.8811 40.8453C35.5866 39.5086 38.3983 37.5727 38.4444 35.1297C38.4905 33.0555 36.6928 30.6125 34.6186 30.0133ZM24.8006 9.31718C25.7225 11.5297 26.5061 13.7422 27.1975 16.0469C28.6264 20.7945 30.1014 25.4961 31.9452 30.1055C31.8069 30.1516 31.6686 30.1977 31.5303 30.2437C28.6264 24.943 27.2897 19.043 25.446 13.2812C24.5241 10.3773 23.6483 7.33515 22.496 4.47733C23.5561 6.04452 24.4319 8.4414 24.8006 9.31718ZM13.0006 21.3937C15.4436 16.1391 17.61 10.7461 18.9928 5.12265C19.0389 4.93827 19.2694 3.9703 19.4077 3.37108C19.4538 3.37108 19.4538 3.37108 19.4999 3.37108C19.6381 4.0164 19.9608 5.12265 20.0069 5.26093C20.56 6.50546 20.8827 7.79608 21.3436 9.04062C22.2655 11.7601 23.1413 14.4797 23.9709 17.1992C25.4459 22.0851 26.8288 26.9711 29.2717 31.4883C28.3499 32.0875 27.428 32.7328 26.5983 33.1937C21.3897 36.0516 11.8483 36.9273 7.23892 32.3641C8.02251 31.4422 8.62173 30.3359 9.17486 29.2297C10.4655 26.6023 11.7561 24.0211 13.0006 21.3937ZM34.1577 37.2961C32.7749 38.5406 31.392 39.6008 29.6866 40.3383C26.5061 41.6289 23.0491 42.2281 19.6381 42.2281C16.1811 42.182 12.7702 41.5367 9.5897 40.2461C8.06861 39.6469 6.54751 38.8633 5.1647 37.9414C4.28892 37.3883 2.9522 36.8351 3.09048 35.4984C3.22876 34.3 4.38111 33.8391 5.39517 34.0695C8.71392 37.4344 14.2452 38.1258 18.7624 37.8492C21.4358 37.6648 24.1092 37.1117 26.5522 36.0055C28.5803 35.0836 32.6366 31.1195 34.7108 32.9172C36.5545 34.4844 35.6788 36.0055 34.1577 37.2961Z" fill="#231F20"/>
<path d="M52.825 13.6517C52.9289 13.6422 53.0706 13.6328 53.25 13.6233C53.4389 13.6139 53.7978 13.6281 54.3267 13.6658C54.865 13.6942 55.375 13.7603 55.8567 13.8642C56.3383 13.9586 56.8767 14.1428 57.4717 14.4167C58.0761 14.6906 58.5956 15.0306 59.03 15.4367C59.4739 15.8333 59.8517 16.3811 60.1633 17.08C60.4844 17.7789 60.6639 18.5769 60.7017 19.4742C60.73 20.2769 60.6403 21.0089 60.4325 21.67C60.2342 22.3217 59.9697 22.86 59.6392 23.285C59.3086 23.7006 58.9025 24.0642 58.4208 24.3758C57.9486 24.6875 57.4953 24.9236 57.0608 25.0842C56.6264 25.2353 56.1589 25.3581 55.6583 25.4525C55.1578 25.5469 54.7658 25.6036 54.4825 25.6225C54.1992 25.6414 53.93 25.6508 53.675 25.6508L53.7883 29.915L50.5442 30.0142L50.1333 13.6942L52.825 13.6517ZM53.6042 23.03C53.8592 23.03 54.1189 23.0206 54.3833 23.0017C54.6478 22.9733 54.9783 22.8931 55.375 22.7608C55.7717 22.6286 56.1117 22.4539 56.395 22.2367C56.6783 22.01 56.9144 21.6794 57.1033 21.245C57.3017 20.8011 57.3819 20.2817 57.3442 19.6867C57.3064 19.1861 57.2025 18.7469 57.0325 18.3692C56.8719 17.9914 56.6642 17.6986 56.4092 17.4908C56.1542 17.2831 55.8897 17.1131 55.6158 16.9808C55.3514 16.8486 55.0633 16.7683 54.7517 16.74C54.4494 16.7022 54.1944 16.6833 53.9867 16.6833C53.7883 16.6833 53.5994 16.6928 53.42 16.7117L53.6042 23.03ZM66.5412 15.21L66.3712 30.0425L63.0562 30.0142L63.2829 15.1958L66.5412 15.21ZM69.1979 15.7483L77.8821 15.4792L78.1937 18.2983L72.7821 26.6708L78.0521 26.94L77.6271 30.1417L69.1554 29.8017L68.8154 28.1158L74.6237 18.44L69.7079 18.5817L69.1979 15.7483ZM80.7028 15.7483L89.387 15.4792L89.6986 18.2983L84.287 26.6708L89.557 26.94L89.132 30.1417L80.6603 29.8017L80.3203 28.1158L86.1286 18.44L81.2128 18.5817L80.7028 15.7483ZM97.1235 15.7767L100.354 15.8475V15.8617L100.339 16.0033L105.099 29.8017L102.082 30.765L100.651 26.7983L96.1318 26.6142L94.7577 30.7367L91.7827 29.745L97.1235 15.9892L97.1093 15.805L97.1235 15.7767ZM94.7577 30.7367H94.7718H94.7577ZM99.036 20.6075L97.8602 20.7917L96.9677 23.5683L99.8435 23.6108L99.036 20.6075ZM116.631 28.6967C116.801 27.7522 117.15 26.8361 117.679 25.9483C118.841 27.025 120.154 27.5303 121.617 27.4642C122.628 27.4169 123.431 27.1242 124.026 26.5858C124.564 26.1042 124.715 25.6036 124.479 25.0842C124.167 24.4136 123.256 23.9367 121.745 23.6533C120.687 23.455 119.752 23.1575 118.94 22.7608C118.128 22.3547 117.486 21.9014 117.013 21.4008C116.551 20.9003 116.206 20.3572 115.979 19.7717C115.762 19.1861 115.682 18.6053 115.738 18.0292C115.804 17.4531 115.989 16.8911 116.291 16.3433C116.602 15.7956 117.023 15.3044 117.552 14.87C118.156 14.3789 118.874 14.0436 119.705 13.8642C120.546 13.6753 121.348 13.6186 122.113 13.6942C122.878 13.7697 123.601 13.8831 124.281 14.0342C124.961 14.1758 125.504 14.3269 125.91 14.4875L126.519 14.7283C125.971 15.8806 125.532 16.7683 125.202 17.3917C123.379 16.5889 121.858 16.4094 120.64 16.8533C119.913 17.1083 119.459 17.5286 119.28 18.1142C119.101 18.7092 119.266 19.2475 119.776 19.7292C120.239 20.1731 120.914 20.4517 121.802 20.565C122.954 20.7161 123.993 21.0703 124.918 21.6275C125.844 22.1753 126.543 22.8269 127.015 23.5825C127.497 24.3381 127.667 25.1881 127.525 26.1325C127.383 27.0769 126.873 27.9742 125.995 28.8242C125.494 29.3058 124.937 29.6742 124.323 29.9292C123.709 30.1842 123.11 30.3211 122.524 30.34C121.948 30.3683 121.362 30.34 120.767 30.255C120.182 30.17 119.644 30.0378 119.152 29.8583C118.671 29.6789 118.236 29.5042 117.849 29.3342C117.462 29.1642 117.16 29.0178 116.942 28.895L116.631 28.6967ZM135.008 15.7767L138.238 15.8475V15.8617L138.224 16.0033L142.984 29.8017L139.967 30.765L138.536 26.7983L134.017 26.6142L132.642 30.7367L129.667 29.745L135.008 15.9892L134.994 15.805L135.008 15.7767ZM132.642 30.7367H132.657H132.642ZM136.921 20.6075L135.745 20.7917L134.852 23.5683L137.728 23.6108L136.921 20.6075ZM149.071 18.185C148.721 18.185 148.457 18.1944 148.277 18.2133L148.164 21.925C149.278 22.0572 150.147 21.8069 150.771 21.1742C151.252 20.6925 151.432 20.1636 151.309 19.5875C151.186 18.9925 150.766 18.5769 150.048 18.3408C149.755 18.2558 149.43 18.2039 149.071 18.185ZM148.391 15.38C149.099 15.3894 149.727 15.4272 150.275 15.4933C150.832 15.55 151.403 15.6728 151.989 15.8617C152.584 16.0506 153.085 16.3008 153.491 16.6125C153.897 16.9242 154.246 17.3492 154.539 17.8875C154.841 18.4164 155.035 19.0444 155.12 19.7717C155.129 20.2439 155.054 20.7067 154.893 21.16C154.742 21.6039 154.553 21.9722 154.327 22.265C154.1 22.5578 153.868 22.8222 153.632 23.0583C153.406 23.285 153.212 23.4503 153.052 23.5542L152.811 23.71L155.545 29.065L152.712 30.255L150.572 25.4383L150.091 24.3617V24.3475L148.164 24.3192L148.107 29.9008C146.237 29.8442 145.283 29.8111 145.246 29.8017C145.227 29.8017 145.227 28.6069 145.246 26.2175C145.265 23.8281 145.283 21.4386 145.302 19.0492C145.331 16.6597 145.34 15.4603 145.331 15.4508C145.557 15.4508 146.02 15.4414 146.719 15.4225C147.427 15.3942 147.985 15.38 148.391 15.38ZM164.311 18.3692C163.574 18.3881 162.913 18.6242 162.327 19.0775C161.751 19.5308 161.312 20.0928 161.01 20.7633C160.708 21.4244 160.538 22.1469 160.5 22.9308C160.462 23.7147 160.561 24.4467 160.797 25.1267C161.033 25.7972 161.458 26.3639 162.072 26.8267C162.686 27.2894 163.442 27.5397 164.339 27.5775C165.255 27.6153 166.053 27.3319 166.733 26.7275C167.423 26.1136 167.871 25.3628 168.079 24.475C168.287 23.5778 168.334 22.6758 168.221 21.7692C168.107 20.8625 167.701 20.0786 167.002 19.4175C166.313 18.7564 165.416 18.4069 164.311 18.3692ZM164.693 15.38C165.751 15.4083 166.719 15.7106 167.597 16.2867C168.485 16.8628 169.175 17.5994 169.666 18.4967C170.166 19.3844 170.549 20.3667 170.813 21.4433C171.087 22.5106 171.13 23.5778 170.941 24.645C170.752 25.7028 170.421 26.6708 169.949 27.5492C169.477 28.4181 168.745 29.1169 167.753 29.6458C166.762 30.1747 165.595 30.4297 164.254 30.4108C162.979 30.3919 161.85 30.1039 160.868 29.5467C159.895 28.9894 159.173 28.2669 158.701 27.3792C158.228 26.4914 157.898 25.5139 157.709 24.4467C157.52 23.3794 157.563 22.3169 157.837 21.2592C158.12 20.1919 158.531 19.2192 159.069 18.3408C159.617 17.4625 160.382 16.7494 161.364 16.2017C162.356 15.6539 163.465 15.38 164.693 15.38ZM173.461 15.38L176.351 15.4083C176.351 15.4083 176.351 15.4131 176.351 15.4225C176.625 15.4225 176.918 15.4319 177.229 15.4508C177.55 15.4697 177.994 15.5311 178.561 15.635C179.128 15.7389 179.661 15.8853 180.162 16.0742C180.672 16.2536 181.21 16.5275 181.777 16.8958C182.344 17.2642 182.83 17.6986 183.236 18.1992C183.642 18.6903 183.982 19.3278 184.256 20.1117C184.53 20.8861 184.672 21.755 184.681 22.7183C184.69 23.455 184.615 24.1444 184.454 24.7867C184.303 25.4194 184.1 25.9672 183.845 26.43C183.59 26.8833 183.279 27.2989 182.91 27.6767C182.542 28.045 182.164 28.3519 181.777 28.5975C181.39 28.8431 180.969 29.0603 180.516 29.2492C180.063 29.4286 179.647 29.5656 179.269 29.66C178.892 29.7544 178.5 29.83 178.094 29.8867C177.687 29.9433 177.362 29.9811 177.116 30C176.88 30.0094 176.653 30.0142 176.436 30.0142V30.255L173.419 30.0142L173.461 15.38ZM176.422 27.4075C176.639 27.3981 176.866 27.3839 177.102 27.365C177.338 27.3367 177.64 27.28 178.009 27.195C178.386 27.1006 178.736 26.9872 179.057 26.855C179.387 26.7228 179.727 26.5339 180.077 26.2883C180.436 26.0333 180.733 25.7453 180.969 25.4242C181.215 25.0936 181.413 24.6828 181.564 24.1917C181.715 23.6911 181.782 23.1386 181.763 22.5342C181.744 21.9297 181.649 21.3867 181.479 20.905C181.309 20.4139 181.097 20.0172 180.842 19.715C180.596 19.4033 180.299 19.1342 179.949 18.9075C179.6 18.6808 179.265 18.5108 178.944 18.3975C178.622 18.2842 178.278 18.1992 177.909 18.1425C177.55 18.0764 177.258 18.0386 177.031 18.0292C176.804 18.0197 176.582 18.0197 176.365 18.0292L176.422 27.4075ZM186.855 16.7967L189.504 15.3375L192.21 21.585L195.525 15.4508L198.117 16.995L193.287 25.1833L193.145 30.0992L190.198 29.83L190.467 25.325L186.855 16.7967Z" fill="black"/>
</svg>
