<?xml version="1.0" standalone="no"?>
<!DOCTYPE svg PUBLIC "-//W3C//DTD SVG 20010904//EN"
 "http://www.w3.org/TR/2001/REC-SVG-20010904/DTD/svg10.dtd">
<svg version="1.0" xmlns="http://www.w3.org/2000/svg"
 width="720.000000pt" height="720.000000pt" viewBox="0 0 720.000000 720.000000"
 preserveAspectRatio="xMidYMid meet">
<metadata>
Created by potrace 1.14, written by Peter Selinger 2001-2017
</metadata>
<g transform="translate(0.000000,720.000000) scale(0.100000,-0.100000)"
fill="#000000" stroke="none">
<path d="M3650 7130 c-36 -9 -77 -22 -92 -28 -14 -6 -57 -13 -93 -16 -95 -8
-167 -52 -219 -134 -42 -68 -100 -271 -121 -427 -7 -55 -15 -89 -50 -225 -20
-74 -38 -142 -40 -150 -2 -8 -13 -46 -24 -85 -11 -38 -34 -115 -51 -170 -17
-55 -33 -107 -35 -115 -2 -8 -4 -15 -5 -15 -1 0 -3 -7 -5 -15 -2 -8 -13 -42
-25 -75 -11 -33 -20 -60 -20 -60 1 0 -9 -32 -17 -55 -4 -8 -7 -22 -9 -30 -2
-8 -7 -23 -13 -35 -11 -24 -23 -56 -26 -71 -5 -23 -121 -333 -150 -399 -7 -16
-21 -52 -30 -80 -10 -27 -22 -55 -27 -61 -4 -6 -5 -14 -1 -17 3 -4 1 -7 -5 -7
-7 0 -12 -6 -12 -14 0 -15 -31 -94 -76 -193 -13 -28 -24 -58 -24 -67 0 -8 -5
-16 -11 -18 -5 -2 -11 -10 -13 -18 -1 -8 -7 -25 -14 -36 -6 -12 -8 -24 -5 -28
3 -3 1 -6 -5 -6 -7 0 -12 -6 -12 -14 0 -8 -22 -62 -50 -120 -27 -58 -50 -108
-50 -110 0 -2 -20 -46 -44 -98 -24 -51 -55 -118 -68 -148 -14 -30 -58 -122
-97 -203 -39 -81 -71 -152 -71 -158 0 -5 -4 -9 -10 -9 -5 0 -10 -9 -10 -20 0
-11 -5 -20 -12 -20 -6 0 -8 -3 -5 -7 4 -3 -2 -20 -12 -37 -22 -35 -136 -288
-141 -311 -1 -5 -53 -122 -70 -160 -9 -18 -31 -73 -35 -85 -1 -3 -16 -35 -33
-72 -18 -36 -32 -71 -32 -77 0 -6 -4 -11 -10 -11 -5 0 -10 -9 -10 -19 0 -11
-3 -21 -7 -23 -5 -1 -28 -42 -51 -91 -44 -88 -164 -276 -186 -289 -6 -4 -8 -8
-4 -8 4 0 -26 -33 -66 -74 -93 -94 -192 -159 -277 -181 -324 -84 -558 -434
-506 -760 24 -154 126 -301 306 -445 24 -19 49 -41 56 -47 8 -7 16 -13 19 -13
3 0 27 -15 53 -34 65 -45 401 -244 413 -244 3 0 28 -13 55 -29 40 -23 259
-125 350 -162 157 -65 429 -157 550 -187 17 -4 32 -8 35 -9 16 -5 58 -17 71
-19 8 -2 25 -6 39 -9 80 -19 159 -37 188 -42 17 -3 47 -7 65 -10 17 -3 39 -8
47 -10 8 -2 29 -6 45 -9 17 -2 50 -8 75 -12 25 -4 63 -8 85 -10 22 -1 54 -5
70 -8 200 -33 687 -39 980 -11 22 2 73 6 113 9 40 3 76 7 80 9 4 3 30 7 57 11
28 3 61 8 75 10 14 3 41 7 60 10 57 9 93 16 120 22 14 3 36 8 50 10 14 3 37 7
52 10 15 3 31 6 35 7 5 0 42 9 83 19 41 11 93 23 115 29 22 5 47 12 55 16 8 3
18 6 22 5 11 -2 294 96 386 134 172 71 411 201 482 262 8 7 76 58 150 114 74
56 137 105 140 109 3 3 33 30 68 58 84 70 206 194 256 261 22 30 43 57 46 60
21 21 67 118 95 205 28 82 31 228 8 304 -8 25 -17 57 -19 71 -5 23 -82 188
-94 200 -3 3 -19 25 -35 49 -33 49 -159 179 -215 223 -38 30 -172 101 -196
104 -8 1 -21 7 -28 13 -13 11 -77 166 -156 376 -22 61 -45 119 -49 130 -5 11
-12 29 -14 40 -3 11 -26 79 -52 150 -25 72 -73 213 -106 315 -33 102 -63 192
-65 200 -3 8 -5 17 -6 20 0 4 -9 31 -34 95 -4 11 -8 26 -10 34 -1 8 -17 60
-35 115 -18 56 -34 103 -34 106 -1 3 -7 25 -15 50 -7 25 -14 50 -16 55 -2 10
-45 147 -111 350 -19 61 -36 115 -38 120 -1 6 -4 17 -8 25 -9 26 -69 212 -72
224 -1 6 -5 18 -8 26 -3 8 -11 33 -18 55 -6 22 -16 46 -22 53 -5 6 -7 12 -3
12 3 0 -3 23 -14 50 -11 28 -17 50 -14 50 4 0 2 6 -3 13 -6 6 -16 30 -22 52
-7 22 -16 49 -21 60 -5 11 -32 85 -60 165 -28 80 -65 181 -82 225 -17 44 -43
114 -58 155 -116 310 -158 410 -253 610 -71 151 -198 369 -219 378 -5 2 -8 8
-8 14 0 14 -92 129 -153 193 -67 68 -164 145 -182 145 -8 0 -15 4 -15 9 0 5
-21 17 -47 27 -27 10 -52 21 -58 24 -39 27 -211 33 -295 10z"/>
</g>
</svg>
