<svg width="24" height="36" viewBox="0 0 24 36" fill="none" xmlns="http://www.w3.org/2000/svg">
<path d="M1.0783 20.3062L19.0791 35.3068C19.691 35.813 20.4786 36.0561 21.2693 35.9828C22.0601 35.9095 22.7896 35.5258 23.2981 34.9158C23.8066 34.3058 24.0526 33.5191 23.9823 32.7281C23.912 31.9371 23.531 31.2061 22.923 30.6953L7.68795 18.0003L22.923 5.30535C23.5334 4.79528 23.9164 4.06376 23.9879 3.27149C24.0593 2.47921 23.8134 1.69098 23.304 1.07992C22.7947 0.468868 22.0636 0.08498 21.2714 0.0125809C20.4792 -0.0598183 19.6907 0.185196 19.0791 0.693798L1.0783 15.6947C0.740776 15.9767 0.469273 16.3293 0.282969 16.7278C0.0966644 17.1262 0.000104904 17.5606 0.000104904 18.0004C0.000104904 18.4403 0.0966644 18.8747 0.282969 19.2731C0.469273 19.6716 0.740776 20.0242 1.0783 20.3062Z" fill="white"/>
</svg>
